<svg xmlns="http://www.w3.org/2000/svg" version="1.1" xmlns:xlink="http://www.w3.org/1999/xlink" xmlns:svgjs="http://svgjs.dev/svgjs" width="2000" height="363" viewBox="0 0 2000 363"><g transform="matrix(1,0,0,1,-1.2121212121212466,-0.7466705403835476)"><svg viewBox="0 0 396 72" data-background-color="#ffffff" preserveAspectRatio="xMidYMid meet" height="363" width="2000" xmlns="http://www.w3.org/2000/svg" xmlns:xlink="http://www.w3.org/1999/xlink"><g id="tight-bounds" transform="matrix(1,0,0,1,0.2400000000000091,0.1480999418942588)"><svg viewBox="0 0 395.52 71.7038001162115" height="71.7038001162115" width="395.52"><g><svg viewBox="0 0 395.52 71.7038001162115" height="71.7038001162115" width="395.52"><g><svg viewBox="0 0 395.52 71.7038001162115" height="71.7038001162115" width="395.52"><g id="textblocktransform"><svg viewBox="0 0 395.52 71.7038001162115" height="71.7038001162115" width="395.52" id="textblock"><g><svg viewBox="0 0 395.52 71.7038001162115" height="71.7038001162115" width="395.52"><g transform="matrix(1,0,0,1,0,0)"><svg width="395.52" viewBox="3.1 -37.1 258.42999999999995 46.800000000000004" height="71.7038001162115" data-palette-color="#5d5de9"><g class="wordmark-text-0" data-fill-palette-color="primary" id="text-0"><path d="M3.1 0L10.1-35 13.75-35 7.4-3.2 27-3.2 26.35 0 3.1 0ZM57.2-12.15L35.1-12.15Q35.05-11.8 35.05-11.1L35.05-11.1Q35.05-7.1 37.32-5 39.6-2.9 44.1-2.9L44.1-2.9Q46.7-2.9 48.97-3.78 51.25-4.65 52.7-6.2L52.7-6.2 54.3-3.65Q52.45-1.8 49.67-0.78 46.9 0.25 43.8 0.25L43.8 0.25Q38.1 0.25 34.82-2.75 31.55-5.75 31.55-10.95L31.55-10.95Q31.55-15.35 33.42-18.9 35.3-22.45 38.62-24.48 41.95-26.5 46.1-26.5L46.1-26.5Q51.35-26.5 54.45-23.53 57.55-20.55 57.55-15.35L57.55-15.35Q57.55-13.9 57.2-12.15L57.2-12.15ZM46-23.5Q42.05-23.5 39.25-21.15 36.45-18.8 35.45-14.8L35.45-14.8 54.2-14.8Q54.25-15.15 54.25-15.75L54.25-15.75Q54.25-19.45 52-21.48 49.75-23.5 46-23.5L46-23.5ZM87.7-26.3L91.25-26.3 86 0 82.6 0 83.45-4.15Q81.55-2.05 78.95-0.9 76.35 0.25 73.2 0.25L73.2 0.25Q69.85 0.25 67.25-1.1 64.65-2.45 63.2-4.98 61.75-7.5 61.75-10.9L61.75-10.9Q61.75-15.35 63.67-18.9 65.6-22.45 69-24.48 72.4-26.5 76.6-26.5L76.6-26.5Q80.35-26.5 82.9-25.03 85.45-23.55 86.6-20.8L86.6-20.8 87.7-26.3ZM73.95-2.9Q77.2-2.9 79.8-4.48 82.4-6.05 83.87-8.88 85.35-11.7 85.35-15.2L85.35-15.2Q85.35-19.05 83.07-21.23 80.8-23.4 76.7-23.4L76.7-23.4Q73.45-23.4 70.85-21.8 68.25-20.2 66.77-17.38 65.3-14.55 65.3-11.05L65.3-11.05Q65.3-7.2 67.57-5.05 69.85-2.9 73.95-2.9L73.95-2.9ZM113.89-26.5Q117.24-26.5 119.87-25.15 122.49-23.8 123.94-21.3 125.39-18.8 125.39-15.4L125.39-15.4Q125.39-10.95 123.47-7.38 121.54-3.8 118.14-1.78 114.74 0.25 110.49 0.25L110.49 0.25Q106.74 0.25 104.19-1.23 101.64-2.7 100.49-5.5L100.49-5.5 97.49 9.7 93.94 9.7 101.09-26.3 104.49-26.3 103.64-22.1Q105.54-24.25 108.14-25.38 110.74-26.5 113.89-26.5L113.89-26.5ZM110.44-2.9Q113.69-2.9 116.27-4.48 118.84-6.05 120.32-8.85 121.79-11.65 121.79-15.2L121.79-15.2Q121.79-19.05 119.52-21.23 117.24-23.4 113.14-23.4L113.14-23.4Q109.89-23.4 107.32-21.83 104.74-20.25 103.27-17.43 101.79-14.6 101.79-11.05L101.79-11.05Q101.79-7.2 104.07-5.05 106.34-2.9 110.44-2.9L110.44-2.9ZM167.19-26.5Q171.64-26.5 174.07-24.28 176.49-22.05 176.49-18.05L176.49-18.05Q176.49-16.9 176.14-14.95L176.14-14.95 173.14 0 169.59 0 172.59-15Q172.84-16.15 172.84-17.45L172.84-17.45Q172.84-20.25 171.19-21.78 169.54-23.3 166.34-23.3L166.34-23.3Q162.34-23.3 159.69-21.08 157.04-18.85 156.14-14.5L156.14-14.5 153.24 0 149.69 0 152.69-15Q152.94-16.4 152.94-17.4L152.94-17.4Q152.94-20.25 151.32-21.78 149.69-23.3 146.44-23.3L146.44-23.3Q142.39-23.3 139.74-20.98 137.09-18.65 136.14-14.1L136.14-14.1 133.34 0 129.79 0 134.99-26.3 138.39-26.3 137.54-22.1Q141.14-26.5 147.49-26.5L147.49-26.5Q150.79-26.5 153.02-25.15 155.24-23.8 156.09-21.25L156.09-21.25Q158.04-23.85 160.87-25.18 163.69-26.5 167.19-26.5L167.19-26.5ZM182.84 0L188.04-26.3 191.59-26.3 186.39 0 182.84 0ZM191.34-32.05Q190.29-32.05 189.61-32.75 188.94-33.45 188.94-34.4L188.94-34.4Q188.94-35.55 189.71-36.33 190.49-37.1 191.69-37.1L191.69-37.1Q192.74-37.1 193.44-36.43 194.14-35.75 194.14-34.85L194.14-34.85Q194.14-33.65 193.34-32.85 192.54-32.05 191.34-32.05L191.34-32.05ZM214.34-26.5Q218.79-26.5 221.26-24.23 223.74-21.95 223.74-17.95L223.74-17.95Q223.74-16.55 223.44-14.95L223.44-14.95 220.44 0 216.89 0 219.89-15Q220.14-16.4 220.14-17.4L220.14-17.4Q220.14-20.25 218.41-21.78 216.69-23.3 213.34-23.3L213.34-23.3Q209.09-23.3 206.34-20.98 203.59-18.65 202.64-14.1L202.64-14.1 199.84 0 196.29 0 201.49-26.3 204.89-26.3 204.04-22.1Q207.79-26.5 214.34-26.5L214.34-26.5ZM257.98-37.1L261.53-37.1 254.13 0 250.73 0 251.58-4.15Q249.68-2.05 247.08-0.9 244.48 0.25 241.33 0.25L241.33 0.25Q237.98 0.25 235.38-1.1 232.78-2.45 231.33-4.98 229.88-7.5 229.88-10.9L229.88-10.9Q229.88-15.35 231.81-18.9 233.73-22.45 237.13-24.48 240.53-26.5 244.73-26.5L244.73-26.5Q248.43-26.5 251.01-25.03 253.58-23.55 254.73-20.8L254.73-20.8 257.98-37.1ZM242.08-2.9Q245.33-2.9 247.93-4.48 250.53-6.05 252.01-8.88 253.48-11.7 253.48-15.2L253.48-15.2Q253.48-19.05 251.21-21.23 248.93-23.4 244.83-23.4L244.83-23.4Q241.58-23.4 238.98-21.8 236.38-20.2 234.91-17.38 233.43-14.55 233.43-11.05L233.43-11.05Q233.43-7.2 235.71-5.05 237.98-2.9 242.08-2.9L242.08-2.9Z" fill="#5d5de9" data-fill-palette-color="primary"></path></g></svg></g></svg></g></svg></g></svg></g><g></g></svg></g><defs></defs></svg><rect width="395.52" height="71.7038001162115" fill="none" stroke="none" visibility="hidden"></rect></g></svg></g></svg>